<svg xmlns="http://www.w3.org/2000/svg" viewBox="0 0 58.8 40.8"><defs><style>.cls-1{isolation:isolate;}.cls-2{fill:#36393d;fill-rule:evenodd;}</style></defs><title>quote</title><g id="_" data-name="’’" class="cls-1"><g id="_2" data-name="’’"><path class="cls-2" d="M19.28,5.52Q17.6,4,12.56.24A122.27,122.27,0,0,0,.2,15.36l6.24,5.52a10.93,10.93,0,0,1,2,2.34,4.09,4.09,0,0,1,.6,2.1,11,11,0,0,1-1,3.9Q7,31.68,2.6,41L12,40.2q13.44-19.08,13.44-25A8.56,8.56,0,0,0,24,10.5,24.56,24.56,0,0,0,19.28,5.52Zm38.28,5a24.56,24.56,0,0,0-4.68-5Q51.2,4,46.16.24A122.27,122.27,0,0,0,33.8,15.36L40,20.88a10.93,10.93,0,0,1,2,2.34,4.09,4.09,0,0,1,.6,2.1,11,11,0,0,1-1,3.9q-1,2.46-5.46,11.82l9.36-.84Q59,21.12,59,15.24A8.56,8.56,0,0,0,57.56,10.5Z" transform="translate(-0.2 -0.24)"/></g></g></svg>